<?xml version="1.0" encoding="UTF-8"?>
<!DOCTYPE svg PUBLIC "-//W3C//DTD SVG 1.1//EN" "http://www.w3.org/Graphics/SVG/1.1/DTD/svg11.dtd">
<!-- Creator: CorelDRAW -->
<svg xmlns="http://www.w3.org/2000/svg" xml:space="preserve" width="215.9mm" height="279.4mm" style="shape-rendering:geometricPrecision; text-rendering:geometricPrecision; image-rendering:optimizeQuality; fill-rule:evenodd; clip-rule:evenodd"
viewBox="0 0 215.9 279.4"
 xmlns:xlink="http://www.w3.org/1999/xlink">
 <defs>
  <style type="text/css">
   <![CDATA[
    .fil0 {fill:#007CC3}
   ]]>
  </style>
 </defs>
 <g id="Capa_x0020_1">
  <metadata id="CorelCorpID_0Corel-Layer"/>
  <path class="fil0" d="M143.032 134.952l-3.5802 0c-2.5597,0 -4.6544,2.0947 -4.6544,4.6544l0 37.5935c0,2.5597 2.0945,4.6544 4.6544,4.6544l3.5802 0c2.56,0 4.6544,-2.0945 4.6544,-4.6544l0 -37.5935c0,-2.5599 -2.0947,-4.6544 -4.6544,-4.6544zm-54.1711 -115.908l21.0243 0c0.9345,0 1.6991,0.8705 1.6991,1.9344l0 18.135c0,1.0639 -0.7646,1.9344 -1.6991,1.9344l-0.508 0 0 9.7824c0,0.1773 -0.0139,0.3517 -0.0396,0.5214l0.0396 0c12.71,15.0969 45.291,15.1567 51.0194,29.7166l0 17.7663 1.3756 0c0.9582,0 1.7423,0.8707 1.7423,1.9344l0 8.2212c0,1.0637 -0.7843,1.9344 -1.7423,1.9344l-1.3756 0 -1.6176 2.9016 2.9932 0c0.9582,0 1.7423,0.8707 1.7423,1.9344l0 8.2212c0,1.0637 -0.7843,1.9344 -1.7423,1.9344l-1.3756 0 0 61.4172 1.1338 0c0.9582,0 2.1975,-0.4697 2.1522,0.5929l-0.4099 9.5628c-0.0452,1.0625 -0.7845,1.9344 -1.7423,1.9344l-1.1338 0 0 13.5408 1.6174 0c0.9582,0 1.7423,0.8707 1.7423,1.9344l0 8.2212c0,1.0637 -0.7843,1.9344 -1.7423,1.9344l-1.6174 0 0 13.1897c-12.2337,22.0276 -115.467,23.1049 -122.089,0l0 -13.1897 -0.5548 0c-0.9582,0 -1.7423,-0.8705 -1.7423,-1.9344l0 -8.2212c0,-1.0639 0.7841,-1.9344 1.7423,-1.9344l0.5548 0 0 -13.5408 -1.0384 0c-0.9582,0 -1.7423,-0.8705 -1.7423,-1.9344l0 -8.2212c0,-1.064 0.7841,-1.9345 1.7423,-1.9345l1.0384 0 0 -61.4172 -0.7966 0c-0.9582,0 -1.7423,-0.8705 -1.7423,-1.9344l0 -8.2212c0,-1.0639 0.7841,-1.9344 1.7423,-1.9344l0.7966 0 0 -2.9016 -0.7966 0c-0.9582,0 -1.7423,-0.8705 -1.7423,-1.9344l0 -8.2212c0,-1.0639 0.7841,-1.9344 1.7423,-1.9344l0.7966 0 0 -17.7663c0.358,-10.2635 40.6365,-16.7677 51.0194,-29.7166l0.0396 0c-0.0257,-0.1697 -0.0396,-0.3439 -0.0396,-0.5214l0 -9.7824 -0.4664 0c-0.9345,0 -1.6991,-0.8705 -1.6991,-1.9344l0 -18.135c0,-1.0639 0.7646,-1.9344 1.6991,-1.9344z"/>
 </g>
</svg>
