<?xml version="1.0" encoding="UTF-8"?>
<svg width="70.556mm" height="95.383mm" version="1.1" viewBox="0 0 250 337.9723" xmlns="http://www.w3.org/2000/svg">
 <defs>
  <radialGradient id="q" cx="201.62" cy="227.3" r="17.4" gradientTransform="matrix(-.61775 1.5543 -.98325 -.39078 714.46 -5.3753)" gradientUnits="userSpaceOnUse">
   <stop stop-color="#fff" offset="0"/>
   <stop stop-color="#fff" stop-opacity="0" offset="1"/>
  </radialGradient>
  <filter id="k" x="-.21" y="-.084" width="1.42" height="1.168" color-interpolation-filters="sRGB">
   <feGaussianBlur stdDeviation="3.6303471"/>
  </filter>
  <radialGradient id="r" cx="446.47" cy="264.3" r="40.588" gradientTransform="matrix(-.63335 .86587 -.68224 -.49903 875.73 -14.082)" gradientUnits="userSpaceOnUse">
   <stop stop-color="#d1d1d1" offset="0"/>
   <stop stop-color="#fff" stop-opacity="0" offset="1"/>
  </radialGradient>
  <filter id="l" x="-.13816" y="-.10606" width="1.2763" height="1.2121" color-interpolation-filters="sRGB">
   <feGaussianBlur stdDeviation="5.1138556"/>
  </filter>
  <radialGradient id="s" cx="401.9" cy="186.73" r="8.1798" gradientTransform="matrix(-1.4655 -.70766 .88048 -1.8234 830.95 805.21)" gradientUnits="userSpaceOnUse">
   <stop stop-color="#ccc" offset="0"/>
   <stop stop-color="#ccc" stop-opacity="0" offset="1"/>
  </radialGradient>
  <filter id="m" x="-.19489" y="-.23629" width="1.3898" height="1.4726" color-interpolation-filters="sRGB">
   <feGaussianBlur stdDeviation="1.207115"/>
  </filter>
  <radialGradient id="t" cx="432.21" cy="182.66" r="20.33" gradientTransform="matrix(-1.0708 .079913 -.013566 -.18178 891.27 174.06)" gradientUnits="userSpaceOnUse">
   <stop stop-color="#ccc" offset="0"/>
   <stop stop-color="#ccc" stop-opacity="0" offset="1"/>
  </radialGradient>
  <filter id="n" x="-.055755" y="-.34508" width="1.1115" height="1.6902" color-interpolation-filters="sRGB">
   <feGaussianBlur stdDeviation="0.92176232"/>
  </filter>
  <filter id="o" x="-.069221" y="-.074946" width="1.1384" height="1.1499" color-interpolation-filters="sRGB">
   <feGaussianBlur stdDeviation="2.3412691"/>
  </filter>
  <filter id="p" x="-.06041" y="-.089094" width="1.1208" height="1.1782" color-interpolation-filters="sRGB">
   <feGaussianBlur stdDeviation="3.572013"/>
  </filter>
 </defs>
 <g transform="translate(-340.15 20.679)">
  <g transform="matrix(1.471 0 0 1.471 -160.21 -149.44)">
   <path d="m502.6 245.85c0 19.727-8.3818 43.587-21.933 56.515s-32.273 14.924-52.952 14.924-39.4-1.9961-52.952-14.924-21.933-36.788-21.933-56.515c0-39.455 33.527-71.44 74.885-71.44s74.885 31.985 74.885 71.44z"/>
   <path d="m367.92 203.57s4.5942-3.6753 3.2159-7.3507c-1.3782-3.6754-10.533-14.237-16.08-28.943s-6.4319-37.672-4.1348-46.401c2.2971-8.7289 9.6478-19.296 23.89-24.349 14.242-5.0536 39.527-7.9925 53.769-8.4519 14.242-0.45942 48.681 3.8578 56.492 7.5331 7.8101 3.6753 21.581 11.784 23.43 23.43 2.3907 15.053 0.63676 29.17-2.7565 39.51-2.4013 7.3173-9.1884 22.511-11.945 25.727-2.7565 3.2159-6.8913 7.3507-6.4318 13.323 0.45942 5.9724 6.8913 13.783 7.8101 17.917 0.91884 4.1348-43.185-19.755-44.104-24.349-0.91883-4.5942-3.6753-12.864-3.6753-12.864s11.945 2.2971 17.458 0.91884c5.513-1.3783 10.567-5.513 12.864-11.485 2.2971-5.9724 8.7632-15.555 8.8674-28.96 0.043-5.532-3.0943-11.148-9.0668-13.904-5.9724-2.7565-29.234-10.992-45.314-10.992s-48.667 8.3738-53.721 13.427c-5.0536 5.0536-7.6716 11.442-5.3745 19.252s8.2816 24.646 11.347 28.068c2.3799 2.6568 4.628 5.817 9.565 6.393 6.4534 0.75285 20.297-4.5553 23.054-3.6365 2.7565 0.91884 13.783 13.783-2.7565 20.674s-43.185 14.701-44.104 11.026c-0.91883-3.6753-2.2971-5.513-2.2971-5.513z" fill-rule="evenodd" stroke="#000" stroke-width="1px"/>
   <path d="m357.96 240.04c5.0735-14.093 28.186-20.858 32.132-24.24 3.946-3.3823-9.5832-31.568-13.529-31.568-3.946 0-10.711 15.784-11.838 18.039-1.1274 2.2549-15.784 40.588-15.784 45.098 0 4.5098 8.0049-16.06 24.804-30.441 16.799-14.381-16.655 25.82-15.784 23.113z" fill="url(#q)" fill-rule="evenodd" filter="url(#k)"/>
   <ellipse transform="matrix(1.0612 0 0 1.0884 -28.135 -17.587)" cx="413.77" cy="240.32" rx="40.588" ry="37.487" fill="url(#r)" filter="url(#o)" opacity=".777"/>
   <path d="m434.63 222.57s-0.56372-23.113 9.5832-20.858c10.147 2.2549 31.568 16.348 33.26 26.495 1.6912 10.147-17.475 49.607-17.475 59.754s16.912 11.274 24.24-2.8186 13.529-45.098 10.711-52.426c-2.8186-7.3284-19.73-27.622-27.622-31.568-7.8921-3.946-30.441-25.931-46.225-20.294s-18.039 46.225-9.0195 49.044c9.0195 2.8186 20.858-5.0735 22.549-7.3284z" fill="#ccc" fill-rule="evenodd" filter="url(#l)" opacity=".282"/>
   <path d="m402.5 179.16s-3.1952 0.43817-4.2522 1.9884c-1.057 1.5502 0.0243 4.2125 0.30617 5.9037 0.56372 3.3823 6.7646 1.6912 6.7646 1.6912l11.402-9.9249-0.49928-2.5631c-4.0788 0.29579-8.8347 1.2267-13.721 2.9047z" fill="url(#s)" fill-rule="evenodd" filter="url(#m)" opacity=".652"/>
   <path d="m411.35 179.94s5.1988-1.6246 14.297-1.6246c9.0979 0 15.271 2.9243 16.896 0.64985 1.6246-2.2745-3.2492-4.8738-9.0978-4.8738s-16.571 0-20.47 0.64984c-3.8991 0.64985-10.398 2.2745-9.7477 4.5489s8.1231 0.64985 8.1231 0.64985z" fill="url(#t)" fill-rule="evenodd" filter="url(#n)" opacity=".652"/>
   <path d="m374.96 188.72s-1.2997-4.5489 3.2492-4.5489 10.398-0.64984 10.398-0.64984-14.297-7.7982-15.596-13.647c-1.2997-5.8486-8.448-19.495-8.448-29.243 0-9.7477 3.2492-20.145 10.398-22.745 7.1483-2.5994 29.243-11.697 48.089-12.347 18.846-0.64985 61.086 7.1483 65.634 12.347 4.5489 5.1988 7.1483 18.196 5.1988 25.344s-9.0978 33.142-14.946 36.391c-5.8486 3.2492-3.2492 7.7982-3.2492 7.7982s14.297-12.997 16.246-20.145 7.1483-18.196 7.7982-26.644c0.64985-8.448-1.2997-22.095-6.4985-25.344-5.1988-3.2492-29.893-18.196-44.19-18.846-14.297-0.64985-61.735 1.9495-68.884 5.8486-7.1483 3.8991-21.445 11.697-22.095 19.495-0.64985 7.7982 1.2997 29.893 4.5489 36.391 3.2492 6.4985 12.347 30.543 12.347 30.543z" fill="#808080" fill-rule="evenodd" filter="url(#p)" opacity=".875" stroke="#000" stroke-width="1px"/>
  </g>
 </g>
</svg>
