<?xml version="1.0" encoding="UTF-8"?>
<svg viewBox="0 0 400 400" xmlns="http://www.w3.org/2000/svg">
 <rect width="400" height="400" fill="#007f00" fill-rule="evenodd"/>
 <g transform="matrix(6.1001 0 0 6.1001 5.9269 -19.506)" fill="#fff" stroke-width="10">
  <path d="m12.524 28.808c-0.0808 0.010479-0.14381 0.052979-0.18167 0.11854l-0.7113 1.2249 5.1761 2.9871 0.7113-1.2249c0.037399-0.065639 0.030399-0.14614 0-0.22128-0.0303-0.07515-0.0879-0.14803-0.17391-0.19756l-4.5596-2.6315c-0.0859-0.04948-0.18008-0.06579-0.2609-0.055279v-4e-5zm-0.964 1.462l-0.5848 1.0194 5.1762 2.9872 0.5848-1.0194-5.1762-2.9871zm-0.656 1.1459l-0.9641 1.6595 5.1762 2.9872 0.964-1.6595-5.1761-2.9872zm-1.3593 2.0151l-6.1639 3.7537-0.0397 0.0237c-0.0343 0.02211-0.0692 0.038651-0.10276 0.063171-0.20493 0.15064-0.37832 0.35041-0.51376 0.58479-0.26384 0.457-0.31902 0.97439-0.18967 1.4462l10.898 6.2904c0.4733-0.12381 0.89778-0.42809 1.1617-0.88509 0.13533-0.23438 0.20914-0.49003 0.23713-0.74283 0.01-0.04118 0.01-0.077408 0.01-0.11854v-0.047421l0.166-7.215-5.4607-3.1531-0.0019 1e-4zm1.5094 2.3075c0.2548-0.019272 0.5017 0.02496 0.71918 0.15015 0.8697 0.50063 0.74404 2.0398 0.74278 3.0425-5e-3 1.0026 0.12639 2.5412-0.74278 3.0425-0.86909 0.50127-2.1424-0.3748-3.0109-0.87719-0.86851-0.50238-2.2677-1.1543-2.268-2.1574-2e-3 -1.0031 1.3999-1.6788 2.268-2.1811 0.65119-0.37668 1.5277-0.96153 2.2917-1.0194zm-8.7717 4.0066l-0.7666 1.3197-0.0471 0.0948-0.9007 1.6279c-0.62898 1.1419-0.67813 2.1252-0.42678 3.0267 0.25135 0.90148 0.82558 1.7233 1.4777 2.4261 1.728 1.8619 4.6532 2.6629 8.7482 2.6631l2.8134-4.8679-10.898-6.2904h-3.6e-4zm-1.5964 8.5821l5.3818 9.8624 1.0509 2.015c0.20727 0.38976 0.40979 0.72736 0.60859 1.0433l0.5056 0.7428c0.65145 0.85506 1.3108 1.3743 2.1101 1.6912 0.6005 0.238 1.2935 0.36503 2.1178 0.43462l3.5166 0.1028c1.8498 0.023438 4.2961 0.10533 7.1913 0.2054 0.11407 0.007202 0.20059 0.007202 0.3161 0.008003l3.3506 0.0948 1.9283-0.1976c0.70072 0.014404 1.0826-0.57126 1.0826-1.2723 0-0.70099-0.3816-1.2644-1.0826-1.2644l-0.4425-0.1975c-0.14697 0-0.26087-0.11379-0.26087-0.26074 0-0.14698 0.1139-0.27661 0.26087-0.27661l0.4425-0.1897c0.70099 0 1.0826-0.57125 1.0826-1.2722 0-0.70098-0.3816-1.2644-1.0826-1.2644l-0.4425-0.1975c-0.14697 0-0.26087-0.11383-0.26087-0.26079v-0.015899c0-0.14695 0.1139-0.26078 0.26087-0.26078l0.4425-0.1976c0.70099 0 1.0826-0.56346 1.0826-1.2644-1e-5 -0.70096-0.3816-1.2723-1.0826-1.2723l-0.4425-0.1897c-0.14697 0-0.26087-0.12964-0.26087-0.27661 0-0.1469 0.1139-0.26076 0.26087-0.26076l0.4425-0.1976c0.70099 0 1.0826-0.56346 1.0826-1.2644 0-0.70095-0.38187-1.286-1.0826-1.2723l-1.9362-0.1975-3.3822 0.0948-7.5943 0.2134-2.6632 0.079-0.2528 8e-3 -1.5727 0.0474c-0.64861 0.018612-1.2708 0.017452-1.8729 0-0.18785-0.004799-0.36889-0.014347-0.55311-0.02375-3.4963-0.17218-6.1546-1.019-7.871-2.8686-0.12744-0.13737-0.25693-0.27915-0.37939-0.42675v-1.91e-4z"/>
  <path d="m38.589 7.0567c-0.20016-0.0016-0.41171 2.1e-4 -0.6322 0.0079l-2.2681 0.1027-11.229 0.2687c0.18899 0.03229 0.37044 0.06889 0.55322 0.11063 2.46 0.56163 4.5275 2.4477 6.4248 5.3895 0.10029 0.15472 0.19442 0.30577 0.29239 0.46625 0.21542 0.34962 0.43614 0.73071 0.64792 1.1064 0.020599 0.03866 0.033497 0.06379 0.0555 0.10274l0.237 0.4109 0.0155 0.0237 2.4971 4.3385 10.898-6.2904c-0.069698-0.1162-0.14718-0.25199-0.21336-0.36351l-0.5453-0.9641-0.063-0.0869-0.9561-1.5963c-0.21477-0.35529-0.45175-0.64686-0.69548-0.89298-0.33357-0.42542-0.66672-0.78137-1.0273-1.0668-0.67396-0.53366-1.4547-0.85122-2.5209-0.98781l-0.893-0.0632c-0.18637-0.0074-0.37672-0.01429-0.57691-0.01576l1e-4 -1e-4zm-15.528 1.0273c-0.35767 0.0079-0.71119 0.04692-1.0512 0.13434-0.66138 0.17008-1.2848 0.50665-1.8333 1.1064-0.0961 0.12739-0.19549 0.25581-0.29239 0.39513l-1.8492 2.995c-0.94464 1.5906-2.2351 3.6671-3.7696 6.1245-0.0605 0.09687-0.10476 0.17059-0.16584 0.26868l-1.7544 2.8528-0.7983 1.7702c-0.36222 0.60007-0.0461 1.2221 0.56121 1.5726 0.60699 0.35047 1.2853 0.30675 1.6357-0.3003l0.3952-0.2845c0.0736-0.12724 0.22844-0.16829 0.35566-0.09483 0.12719 0.07345 0.18398 0.23628 0.11055 0.36352l-0.0556 0.4742c-0.35049 0.60705-0.0463 1.2221 0.56105 1.5726 0.60707 0.35048 1.2854 0.30675 1.6358-0.30029l0.3872-0.2845c0.073502-0.12725 0.22834-0.1683 0.35559-0.09483 0.009001 0.0016 0.01-0.0016 0.01 0 0.008999 0.0016 0.01 0.006599 0.01 0.007999 0.12727 0.07345 0.16831 0.22837 0.094799 0.35561l-0.0471 0.4821c-0.35044 0.60704-0.053499 1.2142 0.55325 1.5647 0.60705 0.35047 1.2932 0.30675 1.6437-0.3003l0.3872-0.2845c0.073599-0.12724 0.23632-0.16039 0.36354-0.086941 0.12721 0.07345 0.16829 0.22837 0.094799 0.35561l-0.0471 0.4821c-0.3505 0.60704-0.053801 1.2142 0.55312 1.5647 0.60705 0.35047 1.3052 0.31348 1.6438-0.3003l1.1379-1.5805 1.6121-2.9713 3.6115-6.6855 1.2644-2.347 0.1185-0.2213 0.7429-1.3829c0.091499-0.16963 0.18435-0.33384 0.27659-0.49786-2.0441-3.5342-4.1901-5.655-6.6619-6.2193-0.58416-0.13336-1.1899-0.21829-1.7859-0.20546l-0.0044-1e-4zm23.273 5.4448l-10.89 6.2983c-0.12935 0.47178-0.081997 0.98917 0.18183 1.4462 0.13526 0.23438 0.32453 0.42626 0.52947 0.57689 0.033501 0.024521 0.059902 0.041161 0.094803 0.063181l0.0397 0.0237 6.1639 3.7537 5.4606-3.1531-0.1659-7.215v-0.04742c-7e-3 -0.04119 0.009998-0.077431 0-0.11853-0.027203-0.25281-0.11752-0.50056-0.25281-0.73494-0.26394-0.45699-0.68845-0.76917-1.1617-0.89298h-1e-4zm-2.1811 3.4613c0.18489 0.008001 0.35866 0.05616 0.52156 0.15014 0.86893 0.50111 0.74992 2.0553 0.75074 3.0583 0.002998 0.75225 0.071301 1.7986-0.26076 2.4893-0.11068 0.23022-0.27287 0.42745-0.48998 0.55318-0.86844 0.50292-2.1352-0.37476-3.003-0.87718-0.86772-0.50242-2.2684-1.1619-2.268-2.1653 0.002003-1.0034 1.3987-1.6722 2.268-2.1732 0.65206-0.37574 1.5289-0.96619 2.2917-1.0273 0.063602-0.004799 0.12803-0.010479 0.18967-0.007999v9.9e-5zm3.8722 6.0691l-5.1682 2.9871 0.9483 1.6674 5.1761-2.9951-0.9562-1.6595zm1.0353 1.786l-5.1762 2.9871 0.5848 1.0194 5.1762-2.9871-0.5848-1.0194zm0.6559 1.138l-5.1761 2.9872 0.7033 1.2328c0.037399 0.065649 0.10895 0.10014 0.18964 0.11064 0.080898 0.010481 0.17499-0.005499 0.26079-0.055281l4.5598-2.6315c0.0858-0.04949 0.15049-0.12243 0.18173-0.19757 0.030197-0.07515 0.0215-0.14775-0.015503-0.21336l-0.7034-1.2328h-2e-4z"/>
  <path d="m54.37 28.599c-0.2294 0.01226-0.46783 0.089859-0.69546 0.22127-0.60705 0.35048-0.90362 0.96556-0.55316 1.5726l0.0471 0.4821c0.073601 0.12725 0.033401 0.28215-0.094799 0.35561-0.12724 0.07345-0.29788 0.040251-0.37137-0.086939l-0.3872-0.2924c-0.35056-0.60704-1.0367-0.65077-1.6437-0.30029-0.60704 0.35047-0.90371 0.96555-0.55322 1.5726l0.0557 0.4821c0.073601 0.12724 0.033298 0.28215-0.094799 0.35562-0.009003 0.001602-0.010002-0.001598-0.010002 0-0.008999 0.001602-0.009998 7e-3 -0.009998 0.007999-0.12727 0.07346-0.28222 0.032322-0.35571-0.09483l-0.3952-0.2845c-0.35032-0.60705-1.0286-0.65868-1.6357-0.3082-0.60706 0.35048-0.91155 0.96556-0.56121 1.5726l0.0557 0.482c0.073601 0.12724 0.017399 0.29005-0.1105 0.36352-0.12719 0.073448-0.28212 0.03233-0.35561-0.09483l-0.3872-0.2845c-0.35062-0.60705-1.0289-0.65868-1.6359-0.3082-0.607 0.35047-0.92339 0.97252-0.56099 1.5726l0.7982 1.7781 1.7701 2.8765 3.9828 6.4722 1.3989 2.268 0.1343 0.2134 0.8298 1.3434c0.10275 0.16657 0.19503 0.3256 0.29239 0.48996 4.0646-0.0079 6.9651-0.80995 8.6848-2.6632 0.6521-0.70276 1.2264-1.5246 1.4777-2.4261 0.21867-0.78422 0.21452-1.6334-0.20547-2.592l-0.01-0.0158-1.0037-1.8492-0.1581-0.2924-0.5056-0.9404c-0.90532-1.6134-2.053-3.7725-3.4139-6.3299-0.053402-0.1008-0.095802-0.17455-0.15017-0.27658l-1.5962-2.9476-1.1301-1.5726c-0.21159-0.38361-0.56601-0.54201-0.94843-0.52156l6e-3 -1e-4zm8.6058 19.851c-0.12248 0.1476-0.25183 0.28933-0.37929 0.42675-1.7164 1.8496-4.3746 2.6964-7.8709 2.8686-0.18422 0.009701-0.36526 0.019241-0.55315 0.0238-0.41054 0.01128-0.85693 0.004799-1.2881 0-0.0443-0.001598-0.065598 0.001602-0.1107 0h-0.53737l-4.9707-0.0079v12.589h1.5252l0.1028-8e-3 1.865-0.0313c0.38168-0.007904 0.72228-0.0588 1.0352-0.13433 0.57085-0.076202 1.0748-0.19281 1.5252-0.37136 0.79916-0.31688 1.4586-0.83612 2.11-1.6912l0.5057-0.7428c0.19878-0.31583 0.40129-0.65348 0.60848-1.0432l1.051-2.0151 5.3816-9.8623v-2.02e-4zm-17.567 2.75c-0.27066 1.1e-5 -0.53364 0.063812-0.76657 0.16603-0.037403 0.017021-0.065903 0.03632-0.10272 0.055271l-0.0397 0.0237-6.3377 3.4613v6.3062l6.3377 3.4613 0.0397 0.0238c0.036602 0.018951 0.065102 0.039299 0.10272 0.055702 0.23293 0.10213 0.49592 0.15804 0.76657 0.15805 0.52766-1.5e-5 0.99954-0.2131 1.3434-0.56117v-12.581c-0.34389-0.34796-0.81577-0.56903-1.3434-0.56903v-4.43e-4zm-1.6754 3.6669c0.2547-0.020203 0.50196 0.024017 0.71912 0.15016 0.86873 0.50209 0.74365 2.0391 0.74287 3.0424-0.003002 1.0035 0.13354 2.5406-0.73496 3.0426-0.86842 0.50192-2.1497-0.36858-3.0188-0.86929-0.65182-0.37551-1.5988-0.84501-2.0309-1.4778-0.14407-0.21095-0.22883-0.44449-0.22916-0.69551-0.005001-1.0035 1.3911-1.665 2.2601-2.1652 0.65176-0.37521 1.5278-0.96832 2.2918-1.0274zm-10.866 0.2055c-0.0755 0-0.14802 0.045971-0.19753 0.11056-0.0495 0.064732-0.0788 0.14597-0.078899 0.24497v5.2631c0 0.099167 0.0303 0.18836 0.078899 0.25294 0.049301 0.06459 0.12179 0.10277 0.19753 0.10277h1.4146v-5.9743h-1.4146zm1.5489 0l0.01 5.9743h1.1696v-5.9743h-1.1796zm1.3197 0l0.01 5.9743 1.9124 8e-3v-5.9822h-1.9204l-0.0021-1e-4z"/>
 </g>
</svg>
